PathFileType	4	(X/Y/Z)	c:/Users/goper/Files/vsCode/490R/osim_files/A01/A01_Fast_02.trc
DataRate	CameraRate	NumFrames	NumMarkers	Units                	OrigDataRate	OrigDataStartFrame	OrigNumFrames
120.00	120.00	5	36	mm	120.0	788	1574
                Frame#	Time	Mobility_markerset:LPSIS			Mobility_markerset:LASIS			Mobility_markerset:LTH1			Mobility_markerset:LTH2			Mobility_markerset:LTH3			Mobility_markerset:LTH4			Mobility_markerset:LLFE			Mobility_markerset:LMFE			Mobility_markerset:LSH1			Mobility_markerset:LSH2			Mobility_markerset:LSH3			Mobility_markerset:LSH4			Mobility_markerset:LLMAL			Mobility_markerset:LMMAL			Mobility_markerset:LCAL			Mobility_markerset:LMTP5			Mobility_markerset:LTOE			Mobility_markerset:LMTP1			Mobility_markerset:RPSIS			Mobility_markerset:RASIS			Mobility_markerset:RTH1			Mobility_markerset:RTH2			Mobility_markerset:RTH3			Mobility_markerset:RTH4			Mobility_markerset:RLFE			Mobility_markerset:RMFE			Mobility_markerset:RSH1			Mobility_markerset:RSH2			Mobility_markerset:RSH3			Mobility_markerset:RSH4			Mobility_markerset:RLMAL			Mobility_markerset:RMMAL			Mobility_markerset:RCAL			Mobility_markerset:RMTP1			Mobility_markerset:RTOE			Mobility_markerset:RMTP5		
		X1	Y1	Z1	X2	Y2	Z2	X3	Y3	Z3	X4	Y4	Z4	X5	Y5	Z5	X6	Y6	Z6	X7	Y7	Z7	X8	Y8	Z8	X9	Y9	Z9	X10	Y10	Z10	X11	Y11	Z11	X12	Y12	Z12	X13	Y13	Z13	X14	Y14	Z14	X15	Y15	Z15	X16	Y16	Z16	X17	Y17	Z17	X18	Y18	Z18	X19	Y19	Z19	X20	Y20	Z20	X21	Y21	Z21	X22	Y22	Z22	X23	Y23	Z23	X24	Y24	Z24	X25	Y25	Z25	X26	Y26	Z26	X27	Y27	Z27	X28	Y28	Z28	X29	Y29	Z29	X30	Y30	Z30	X31	Y31	Z31	X32	Y32	Z32	X33	Y33	Z33	X34	Y34	Z34	X35	Y35	Z35	X36	Y36	Z36

788	6.55833	-479.65030	1037.59595	203.23857	-707.90540	1005.87244	313.14508	-657.90997	678.82446	376.19952	-676.17975	634.78687	374.88135	-714.83276	696.25256	386.15292	-726.00458	651.72589	379.37302	0.00000	0.00000	0.00000	-757.58160	504.94278	225.88512	-568.53986	437.31500	310.33011	-532.86896	406.12668	305.25781	-605.60211	387.01566	319.29282	-565.40369	365.09592	312.64490	-364.87524	224.07405	251.54510	-378.63013	227.32835	166.31050	-301.28629	263.02921	190.39034	-411.90140	89.17054	289.07556	-462.27121	83.56799	232.04231	-450.94519	84.32318	194.49522	-489.62320	1044.15979	101.79436	-728.32263	1000.86304	53.06314	-709.61078	688.28503	-25.04903	-716.46570	646.19891	-18.71399	-649.77057	670.90417	-25.90330	-666.58557	631.03992	-17.85421	-738.93542	503.51666	33.31210	-736.68280	519.64893	151.63116	-633.14154	310.63168	23.37436	-631.84796	265.62204	24.63660	-694.72046	302.46536	24.34445	-685.78027	258.61560	25.19510	-636.58130	89.21473	58.85634	-654.95404	107.45630	145.45898	-578.21765	64.73315	109.20002	-782.88843	43.47028	155.97533	-818.94238	56.23564	112.43884	-765.22241	31.19538	40.20131
789	6.56667	-491.70395	1040.86511	202.24670	-719.72455	1010.04987	312.83426	-678.23755	683.42017	376.99985	-697.44916	639.80005	375.60760	-734.74835	702.43921	386.01178	-746.93616	658.15015	378.91571	-732.65710	525.61450	354.11255	-780.77155	512.37616	225.32004	-594.52850	437.95450	309.99969	-559.86578	405.56689	305.00851	-632.46857	389.72086	319.40182	-593.63660	365.77673	312.28217	-398.27408	217.84142	251.31496	-413.77606	224.18089	163.77721	-333.42645	254.05731	190.53601	-450.15128	84.70741	288.70166	-500.61465	80.70615	231.52596	-489.11792	81.07983	194.33397	-501.34732	1047.06128	101.03011	-739.57739	1003.47583	53.02658	-715.53754	689.21021	-25.92343	-721.78918	646.96393	-19.90461	-655.52649	673.03186	-26.52615	-671.51923	632.78241	-18.70310	-741.40302	503.61124	31.80868	-740.14398	519.84442	150.38696	-634.74402	311.32507	22.52603	-633.09393	266.31415	23.93383	-696.20331	302.83469	23.50866	-686.94855	258.96371	24.55706	-636.73987	89.62629	58.52651	-655.34351	108.16644	144.97847	-578.41028	65.55553	109.03343	-782.93158	43.58201	155.78613	-819.02368	56.08615	112.19145	-765.27234	31.02761	40.02916
790	6.57500	-503.64996	1043.91541	201.38985	-731.14966	1014.10187	312.34717	-698.49597	687.94287	377.88367	-719.34937	645.05249	375.89075	-754.60638	708.61664	385.75296	-767.83392	664.50470	378.45056	0.00000	0.00000	0.00000	-803.86908	519.74249	224.64787	-620.43036	438.47427	309.55685	-587.22150	404.39609	305.03333	-660.15625	391.70386	319.07309	-622.41754	366.26685	311.96472	-432.53729	211.02423	251.44846	-446.07965	214.83548	166.86954	-366.27740	244.62267	190.60162	-489.37750	79.99952	289.11087	-540.07306	77.90323	231.78423	-528.50421	77.57085	194.74657	-512.99219	1049.86218	100.43875	-750.94086	1005.91254	52.73411	-721.67096	689.84613	-26.92581	-726.89557	647.49261	-20.98569	-660.41559	675.01569	-27.22748	-676.36877	634.32764	-19.33024	-743.71906	503.73480	30.45070	-743.90430	520.45789	149.28046	-636.28552	312.09842	21.94127	-634.46851	267.00528	23.30262	-697.63965	303.20667	22.80143	-688.04633	259.45511	23.94591	-636.94568	90.06279	58.28995	-655.99463	108.94363	144.62608	-578.75250	66.42305	108.94018	-783.02521	43.71011	155.61992	-819.13312	55.90820	112.00441	-765.32495	30.89571	39.89630
791	6.58333	-515.57861	1046.74805	200.81598	-742.85229	1017.78662	311.79755	-718.53918	692.46539	378.58350	-740.58655	650.11810	376.22925	-774.18488	714.64532	385.32083	-789.19830	670.48517	377.43304	-777.25507	537.16144	352.67914	-826.34094	526.85437	223.77255	-646.11810	438.79214	308.95703	-614.04022	403.62369	304.19174	-687.74713	393.61972	318.70404	-651.01910	366.71841	311.74826	-467.50137	204.37502	252.26282	-480.83710	207.65083	167.51375	-399.92099	234.31575	190.76656	-529.49261	75.19546	290.09137	-579.95441	74.79283	233.00240	-568.60144	74.04722	195.99715	-524.63232	1052.41064	100.05334	-762.15472	1008.07056	52.49443	-727.22241	690.43817	-27.60987	-731.80090	648.02191	-22.00443	-666.21387	676.45801	-27.19697	-680.33191	635.96100	-20.00177	-745.98999	504.00632	29.04816	-747.66223	520.40265	148.31825	-637.84814	312.97076	21.52350	-635.70215	267.94012	23.00059	-699.05530	303.70963	22.20600	-689.25989	259.93951	23.47902	-637.21313	90.57332	58.09895	-656.48950	109.42573	144.46463	-579.21124	67.13021	108.91932	-783.14197	43.74979	155.48988	-819.30603	55.73031	111.88780	-765.34717	30.76388	39.80553
792	6.59167	-527.17548	1049.29456	200.41846	-755.45184	1021.81635	311.35806	-738.19958	696.96216	379.06577	-761.28967	655.15137	376.43872	-793.36584	720.59943	384.70212	-808.82458	676.77869	377.01971	-798.82288	542.42596	351.19553	-848.03784	533.37238	222.57529	-671.83356	438.77274	308.29416	-641.62122	402.00528	304.16525	-715.28656	395.33878	318.33994	-679.21759	367.08597	311.73578	-502.81097	196.37602	252.63556	-515.86279	200.06625	168.17424	-434.21478	223.66501	191.30368	-570.03656	70.54446	291.61981	-620.50470	71.71884	234.54742	-609.15649	70.25216	197.45512	-536.10175	1054.76746	99.78743	-773.41278	1009.84509	52.10583	-732.52722	690.86365	-28.20388	-736.51947	648.30865	-22.71833	-670.94843	678.33868	-26.89760	-685.08563	637.19244	-19.93732	-748.15161	504.23129	27.83305	-751.43207	520.07599	147.29800	-639.32190	313.92300	21.33907	-636.66840	268.99161	22.91957	-700.41620	304.14478	21.77522	-690.38043	260.52914	23.08356	-637.60498	90.96873	58.12622	-656.80298	110.06368	144.02014	-579.46198	67.91249	108.95795	-783.21729	43.73487	155.37782	-819.46167	55.53580	111.79295	-765.43176	30.69340	39.74662
